<svg xmlns="http://www.w3.org/2000/svg" width="15" height="15" viewBox="0 0 15 15" fill="none">
  <g clip-path="url(#clip0_311_1262)">
    <path d="M10.5314 0H4.46858C2.0046 0 0 2.0046 0 4.46858V10.5314C0 12.9954 2.0046 15 4.46858 15H10.5314C12.9954 15 15 12.9954 15 10.5314V4.46858C15 2.0046 12.9954 0 10.5314 0ZM13.491 10.5314C13.491 12.1659 12.1659 13.491 10.5314 13.491H4.46858C2.83406 13.491 1.509 12.1659 1.509 10.5314V4.46858C1.509 2.83404 2.83406 1.509 4.46858 1.509H10.5314C12.1659 1.509 13.491 2.83404 13.491 4.46858V10.5314Z" fill="url(#paint0_linear_311_1262)"/>
    <path d="M7.49965 3.62047C5.36047 3.62047 3.62012 5.36082 3.62012 7.49997C3.62012 9.63913 5.36047 11.3795 7.49965 11.3795C9.63883 11.3795 11.3792 9.63915 11.3792 7.49997C11.3792 5.3608 9.63883 3.62047 7.49965 3.62047ZM7.49965 9.87054C6.19043 9.87054 5.12912 8.80922 5.12912 7.5C5.12912 6.19078 6.19046 5.12947 7.49965 5.12947C8.80887 5.12947 9.87019 6.19078 9.87019 7.5C9.87019 8.8092 8.80884 9.87054 7.49965 9.87054Z" fill="url(#paint1_linear_311_1262)"/>
    <path d="M11.3866 4.57921C11.9001 4.57921 12.3163 4.16301 12.3163 3.64959C12.3163 3.13618 11.9001 2.71998 11.3866 2.71998C10.8732 2.71998 10.457 3.13618 10.457 3.64959C10.457 4.16301 10.8732 4.57921 11.3866 4.57921Z" fill="url(#paint2_linear_311_1262)"/>
  </g>
  <defs>
    <linearGradient id="paint0_linear_311_1262" x1="7.5" y1="14.9563" x2="7.5" y2="0.116508" gradientUnits="userSpaceOnUse">
      <stop stop-color="#E09B3D"/>
      <stop offset="0.3" stop-color="#C74C4D"/>
      <stop offset="0.6" stop-color="#C21975"/>
      <stop offset="1" stop-color="#7024C4"/>
    </linearGradient>
    <linearGradient id="paint1_linear_311_1262" x1="7.49965" y1="14.9563" x2="7.49965" y2="0.11651" gradientUnits="userSpaceOnUse">
      <stop stop-color="#E09B3D"/>
      <stop offset="0.3" stop-color="#C74C4D"/>
      <stop offset="0.6" stop-color="#C21975"/>
      <stop offset="1" stop-color="#7024C4"/>
    </linearGradient>
    <linearGradient id="paint2_linear_311_1262" x1="11.3866" y1="14.9563" x2="11.3866" y2="0.116509" gradientUnits="userSpaceOnUse">
      <stop stop-color="#E09B3D"/>
      <stop offset="0.3" stop-color="#C74C4D"/>
      <stop offset="0.6" stop-color="#C21975"/>
      <stop offset="1" stop-color="#7024C4"/>
    </linearGradient>
    <clipPath id="clip0_311_1262">
      <rect width="15" height="15" fill="white"/>
    </clipPath>
  </defs>
</svg>
