<svg width="39" height="49" viewBox="0 0 39 49" fill="none" xmlns="http://www.w3.org/2000/svg">
<path d="M36.7136 7.14844C32.2316 7.14844 29.9663 8.11895 27.7757 9.05741C25.7894 9.9083 23.9134 10.7121 20.0772 10.7121C16.2377 10.7121 14.3604 9.90811 12.373 9.05703C10.1823 8.11876 7.9168 7.14863 3.43555 7.14863V27.052C7.27064 27.052 9.14681 27.8568 11.133 28.7089C13.325 29.6492 15.5915 30.6215 20.0772 30.6215C24.5598 30.6215 26.8251 29.6492 29.016 28.7091C31.002 27.8569 32.8779 27.0518 36.7137 27.0518H38.2874V7.14844H36.7136Z" fill="#008FFF"/>
<path d="M27.7757 18.1672C25.7894 19.0181 23.9134 19.8218 20.0772 19.8218C16.2377 19.8218 14.3604 19.0179 12.373 18.1668C10.1823 17.2285 7.9168 16.2584 3.43555 16.2584V27.0519C7.27064 27.0519 9.14681 27.8567 11.133 28.7088C13.325 29.6492 15.5915 30.6215 20.0772 30.6215C24.5598 30.6215 26.8251 29.6492 29.016 28.709C31.002 27.8568 32.8779 27.0517 36.7137 27.0517H38.2874V16.2583H36.7137C32.2316 16.2583 29.9663 17.2287 27.7757 18.1672Z" fill="#008FFF"/>
<path d="M1.86133 5.56689H5.00879V48.2616H1.86133V5.56689Z" fill="#BA7400"/>
<path d="M3.43555 5.56689H5.00933V48.2616H3.43555V5.56689Z" fill="#804D00"/>
<path d="M3.43533 6.87076C1.54107 6.87076 0 5.32969 0 3.43543C0 1.54116 1.54107 0 3.43533 0C5.3296 0 6.87067 1.54098 6.87067 3.43524C6.87067 5.3295 5.3296 6.87076 3.43533 6.87076Z" fill="#804D00"/>
<path d="M3.43555 6.87076V0C5.32981 0 6.87088 1.54098 6.87088 3.43524C6.87088 5.3295 5.32981 6.87076 3.43555 6.87076Z" fill="#4C3011"/>
</svg>
