<svg width="10" height="14" viewBox="0 0 10 14" fill="none" xmlns="http://www.w3.org/2000/svg">
<g clip-path="url(#clip0_311_1217)">
<path d="M9.59441 3.48446C9.54457 3.29769 9.44338 3.09868 9.36851 2.92444C8.47268 0.771554 6.51532 0 4.93485 0C2.81909 0 0.488843 1.4187 0.177734 4.34298V4.94043C0.177734 4.96536 0.186327 5.18934 0.198534 5.30137C0.372934 6.69501 1.47262 8.17614 2.29391 9.56978C3.1775 11.0629 4.09435 12.5318 5.00271 14C5.56282 13.0418 6.12092 12.0711 6.66827 11.1378C6.81744 10.8639 6.99061 10.5901 7.13994 10.3287C7.23948 10.1546 7.42964 9.98056 7.51651 9.81859C8.40007 8.20091 9.82225 6.57074 9.82225 4.96533V4.30581C9.82228 4.13177 9.60655 3.52199 9.59441 3.48446ZM4.97358 6.48363C4.35166 6.48363 3.67092 6.17266 3.33491 5.31384C3.28485 5.17713 3.28888 4.90316 3.28888 4.87807V4.49229C3.28888 3.39745 4.2185 2.89958 5.02722 2.89958C6.02285 2.89958 6.79287 3.69613 6.79287 4.69175C6.79287 5.68734 5.9692 6.48363 4.97358 6.48363Z" fill="white"/>
</g>
<defs>
<clipPath id="clip0_311_1217">
<rect width="10" height="14" fill="white"/>
</clipPath>
</defs>
</svg>
