<svg width="17" height="18" viewBox="0 0 17 18" fill="none" xmlns="http://www.w3.org/2000/svg">
<g clip-path="url(#clip0_311_1508)">
<path d="M16.9919 13.9129C17.0279 14.1889 16.9438 14.4288 16.7399 14.6328L14.3464 17.0083C14.2384 17.1282 14.0974 17.2303 13.9235 17.3142C13.7495 17.3982 13.5786 17.4522 13.4107 17.4762C13.3987 17.4762 13.3626 17.4793 13.3026 17.4853C13.2427 17.4912 13.1647 17.4943 13.0687 17.4943C12.8407 17.4943 12.4717 17.4553 11.9618 17.3773C11.4519 17.2993 10.828 17.1073 10.0902 16.8014C9.35225 16.4954 8.51544 16.0365 7.57964 15.4246C6.64384 14.8128 5.64799 13.9729 4.59219 12.9051C3.75234 12.0772 3.05647 11.2854 2.50457 10.5296C1.95267 9.77367 1.50875 9.0748 1.17281 8.43292C0.836846 7.79103 0.584893 7.20914 0.416924 6.68724C0.248954 6.16533 0.134975 5.71542 0.0749862 5.33748C0.0149972 4.95955 -0.00899835 4.66261 0.00299945 4.44665C0.0149972 4.23069 0.0209961 4.11071 0.0209961 4.08671C0.0449917 3.91874 0.0989818 3.74778 0.182966 3.57381C0.266951 3.39984 0.368932 3.25887 0.48891 3.15089L2.88247 0.757325C3.05044 0.589356 3.24241 0.505371 3.45837 0.505371C3.61434 0.505371 3.75231 0.550363 3.87229 0.640346C3.99227 0.73033 4.09425 0.841309 4.17823 0.973285L6.10388 4.62661C6.21186 4.81858 6.24185 5.02854 6.19386 5.2565C6.14587 5.48446 6.04389 5.67642 5.88792 5.83239L5.00608 6.71423C4.98209 6.73823 4.96109 6.77722 4.94309 6.83121C4.9251 6.8852 4.9161 6.93019 4.9161 6.96619C4.96409 7.21814 5.07207 7.50609 5.24004 7.83003C5.38401 8.11797 5.60597 8.46891 5.90592 8.88283C6.20586 9.29676 6.63178 9.77364 7.18368 10.3135C7.72358 10.8655 8.2035 11.2944 8.62342 11.6004C9.04325 11.9062 9.39431 12.1312 9.67625 12.2752C9.9582 12.4192 10.1742 12.5062 10.3241 12.5361L10.549 12.5811C10.573 12.5811 10.6121 12.5721 10.666 12.5541C10.72 12.5361 10.759 12.5151 10.783 12.4911L11.8088 11.4473C12.0249 11.2553 12.2767 11.1594 12.5647 11.1594C12.7687 11.1594 12.9306 11.1953 13.0506 11.2673H13.0685L16.5419 13.319C16.7939 13.475 16.9439 13.673 16.9919 13.9129Z" fill="white"/>
</g>
<defs>
<clipPath id="clip0_311_1508">
<rect width="17" height="17" fill="white" transform="translate(0 0.5)"/>
</clipPath>
</defs>
</svg>
