<svg xmlns="http://www.w3.org/2000/svg"><defs><linearGradient id="b" x1="7.5" y1="14.956" x2="7.5" y2=".117" gradientUnits="userSpaceOnUse"><stop stop-color="#E09B3D"/><stop offset=".3" stop-color="#C74C4D"/><stop offset=".6" stop-color="#C21975"/><stop offset="1" stop-color="#7024C4"/></linearGradient><linearGradient id="c" x1="7.5" y1="14.956" x2="7.5" y2=".117" gradientUnits="userSpaceOnUse"><stop stop-color="#E09B3D"/><stop offset=".3" stop-color="#C74C4D"/><stop offset=".6" stop-color="#C21975"/><stop offset="1" stop-color="#7024C4"/></linearGradient><linearGradient id="d" x1="11.387" y1="14.956" x2="11.387" y2=".117" gradientUnits="userSpaceOnUse"><stop stop-color="#E09B3D"/><stop offset=".3" stop-color="#C74C4D"/><stop offset=".6" stop-color="#C21975"/><stop offset="1" stop-color="#7024C4"/></linearGradient><clipPath id="a"><path fill="#fff" d="M0 0h15v15H0z"/></clipPath><clipPath id="a"><path fill="#fff" d="M0 0h16v12H0z"/></clipPath><clipPath id="a"><path fill="#fff" transform="translate(0 .5)" d="M0 0h15v15H0z"/></clipPath><clipPath id="b"><path fill="#fff" transform="translate(0 .5)" d="M0 0h15v15H0z"/></clipPath><clipPath id="a"><path fill="#fff" transform="translate(0 .5)" d="M0 0h17v17H0z"/></clipPath><clipPath id="a"><path fill="#fff" d="M0 0h10v14H0z"/></clipPath></defs><symbol id="icon-arrow-right" viewBox="0 0 20 20"><path d="M7.5 15l5-5-5-5" stroke="#fff" stroke-width="1.67" stroke-linecap="round" stroke-linejoin="round"/></symbol><symbol id="icon-burger" viewBox="0 0 22 12"><path d="M21 1H1m20 5H1m20 5H1" stroke="#fff" stroke-width="2" stroke-linecap="round" stroke-linejoin="round"/></symbol><symbol id="icon-complete" viewBox="0 0 134 134"><path d="M127 61.514v5.52a59.996 59.996 0 0 1-42.988 57.504 60.003 60.003 0 0 1-67.346-24.881A60 60 0 0 1 91.42 12.194m35.58 6.84l-60 60.06-18-18" stroke="#008FFF" stroke-width="14" stroke-linecap="round" stroke-linejoin="round"/></symbol><symbol id="icon-facebook" viewBox="0 0 512 512"><path d="M134.941 272.691h56.123v231.051a8.256 8.256 0 0 0 8.258 8.258h95.159a8.256 8.256 0 0 0 8.258-8.258V273.78h64.519a8.26 8.26 0 0 0 8.204-7.315l9.799-85.061a8.259 8.259 0 0 0-8.202-9.203h-74.316V118.88c0-16.073 8.654-24.224 25.726-24.224h48.59a8.258 8.258 0 0 0 8.258-8.258V8.319a8.256 8.256 0 0 0-8.258-8.258h-66.965A65.863 65.863 0 0 0 307.027 0c-11.619 0-52.006 2.281-83.909 31.63-35.348 32.524-30.434 71.465-29.26 78.217v62.352H134.94a8.256 8.256 0 0 0-8.258 8.258v83.975a8.26 8.26 0 0 0 8.259 8.259z" fill="#385c8e"/></symbol><symbol id="icon-flag" viewBox="0 0 39 49"><path d="M36.714 7.148c-4.482 0-6.748.971-8.938 1.91-1.987.85-3.863 1.654-7.699 1.654-3.84 0-5.717-.804-7.704-1.655-2.19-.938-4.456-1.908-8.937-1.908v19.903c3.835 0 5.71.805 7.697 1.657 2.192.94 4.459 1.913 8.944 1.913 4.483 0 6.748-.973 8.939-1.913 1.986-.852 3.862-1.657 7.698-1.657h1.573V7.148h-1.573z" fill="#008FFF"/><path d="M27.776 18.167c-1.987.851-3.863 1.655-7.699 1.655-3.84 0-5.717-.804-7.704-1.655-2.19-.939-4.456-1.909-8.937-1.909v10.794c3.835 0 5.71.805 7.697 1.657 2.192.94 4.459 1.913 8.944 1.913 4.483 0 6.748-.973 8.939-1.913 1.986-.852 3.862-1.657 7.698-1.657h1.573V16.258h-1.573c-4.482 0-6.748.97-8.938 1.91z" fill="#008FFF"/><path d="M1.861 5.567H5.01v42.695H1.86V5.567z" fill="#BA7400"/><path d="M3.436 5.567h1.573v42.695H3.436V5.567z" fill="#804D00"/><path d="M3.435 6.87A3.44 3.44 0 0 1 0 3.436 3.44 3.44 0 0 1 3.435 0a3.44 3.44 0 0 1 3.436 3.435 3.44 3.44 0 0 1-3.436 3.436z" fill="#804D00"/><path d="M3.436 6.87V0A3.44 3.44 0 0 1 6.87 3.435a3.44 3.44 0 0 1-3.435 3.436z" fill="#4C3011"/></symbol><symbol id="icon-instagram" viewBox="0 0 15 15"><g clip-path="url(#a)"><path d="M10.531 0H4.47A4.474 4.474 0 0 0 0 4.469v6.062A4.474 4.474 0 0 0 4.469 15h6.062A4.474 4.474 0 0 0 15 10.531V4.47A4.474 4.474 0 0 0 10.531 0zm2.96 10.531a2.96 2.96 0 0 1-2.96 2.96H4.47a2.96 2.96 0 0 1-2.96-2.96V4.47a2.96 2.96 0 0 1 2.96-2.96h6.062a2.96 2.96 0 0 1 2.96 2.96v6.062z" fill="url(#b)"/><path d="M7.5 3.62c-2.14 0-3.88 1.74-3.88 3.88 0 2.14 1.74 3.88 3.88 3.88 2.139 0 3.88-1.74 3.88-3.88 0-2.14-1.741-3.88-3.88-3.88zm0 6.25a2.37 2.37 0 1 1 0-4.74 2.37 2.37 0 0 1 0 4.74z" fill="url(#c)"/><path d="M11.387 4.58a.93.93 0 1 0 0-1.86.93.93 0 0 0 0 1.86z" fill="url(#d)"/></g></symbol><symbol id="Icon-logo" viewBox="0 0 22 12"><path d="M21 1H1m20 5H1m20 5H1" stroke="#fff" stroke-width="2" stroke-linecap="round" stroke-linejoin="round"/></symbol><symbol id="icon-mail" viewBox="0 0 16 12"><g clip-path="url(#a)" fill="#fff"><path d="M8 8.286L6.02 6.554.362 11.405c.206.19.484.31.79.31h13.698c.306 0 .582-.12.787-.31L9.98 6.554 8 8.286z"/><path d="M15.639.596a1.151 1.151 0 0 0-.79-.31H1.151C.846.286.569.405.363.598L8 7.143 15.639.596zM0 1.29v9.495L5.523 6.09 0 1.29zM10.477 6.09L16 10.785V1.286l-5.523 4.805z"/></g></symbol><symbol id="icon-phone-2" viewBox="0 0 15 16"><g clip-path="url(#a)"><g clip-path="url(#b)" fill="#fff"><path d="M11.404 10.423c-.49-.484-1.102-.484-1.589 0a93.32 93.32 0 0 0-1.108 1.111c-.1.103-.184.125-.306.056-.24-.13-.496-.237-.727-.38-1.077-.678-1.98-1.549-2.778-2.529-.397-.487-.75-1.008-.996-1.595-.05-.118-.04-.196.056-.293.372-.359.734-.727 1.099-1.096.509-.512.509-1.11-.003-1.626-.29-.293-.58-.58-.871-.874-.3-.3-.596-.602-.899-.899-.49-.477-1.102-.477-1.589.003C1.32 2.67.96 3.047.58 3.41c-.353.334-.53.743-.568 1.22-.06.778.131 1.512.4 2.226.549 1.48 1.385 2.794 2.4 3.999a14.855 14.855 0 0 0 4.919 3.849c.861.418 1.754.74 2.725.792.668.038 1.248-.13 1.714-.652.318-.356.677-.68 1.014-1.02.5-.506.502-1.118.006-1.618-.593-.596-1.189-1.189-1.785-1.782zM10.807 7.935l1.152-.197A5.148 5.148 0 0 0 10.52 4.96a5.12 5.12 0 0 0-2.934-1.464l-.162 1.158a3.972 3.972 0 0 1 2.272 1.133c.587.587.97 1.33 1.111 2.148zM12.609 2.928A8.493 8.493 0 0 0 7.739.5l-.162 1.158a7.364 7.364 0 0 1 4.208 2.098 7.358 7.358 0 0 1 2.063 3.98L15 7.538a8.555 8.555 0 0 0-2.391-4.61z"/></g></g></symbol><symbol id="icon-phone" viewBox="0 0 17 18"><g clip-path="url(#a)"><path d="M16.992 13.913a.822.822 0 0 1-.252.72l-2.394 2.375a1.35 1.35 0 0 1-.422.306 1.75 1.75 0 0 1-.513.162 2.476 2.476 0 0 1-.342.018c-.228 0-.597-.039-1.107-.117-.51-.078-1.134-.27-1.872-.576-.738-.306-1.575-.764-2.51-1.376-.936-.612-1.932-1.452-2.988-2.52-.84-.828-1.536-1.62-2.087-2.375a16.93 16.93 0 0 1-1.332-2.097 11.293 11.293 0 0 1-.756-1.746 9.262 9.262 0 0 1-.342-1.35 4.457 4.457 0 0 1-.072-.89c.012-.216.018-.336.018-.36a1.75 1.75 0 0 1 .162-.513c.084-.174.186-.315.306-.423L2.882.757a.793.793 0 0 1 .576-.252c.156 0 .294.045.414.135.12.09.222.201.306.333l1.926 3.654a.876.876 0 0 1 .09.63c-.048.227-.15.42-.306.575l-.882.882a.3.3 0 0 0-.063.117.444.444 0 0 0-.027.135c.048.252.156.54.324.864.144.288.366.639.666 1.053.3.414.726.89 1.278 1.43.54.553 1.02.981 1.44 1.287.42.306.77.531 1.052.675.282.144.498.231.648.261l.225.045a.427.427 0 0 0 .117-.027.3.3 0 0 0 .117-.063l1.026-1.044c.216-.192.468-.288.756-.288.204 0 .366.036.486.108h.018l3.473 2.052c.252.156.402.354.45.594z" fill="#fff"/></g></symbol><symbol id="icon-point" viewBox="0 0 10 14"><g clip-path="url(#a)"><path d="M9.594 3.484c-.05-.186-.15-.385-.225-.56C8.473.772 6.515 0 4.935 0 2.819 0 .489 1.419.178 4.343v.597c0 .025.008.25.02.361.175 1.394 1.275 2.875 2.096 4.269.884 1.493 1.8 2.962 2.709 4.43.56-.958 1.118-1.929 1.665-2.862.15-.274.323-.548.472-.81.1-.173.29-.347.377-.51.883-1.617 2.305-3.247 2.305-4.853v-.66c0-.173-.215-.783-.228-.82zm-4.62 3c-.622 0-1.303-.311-1.64-1.17-.05-.137-.045-.41-.045-.436v-.386c0-1.095.93-1.592 1.738-1.592.996 0 1.766.796 1.766 1.792 0 .995-.824 1.792-1.82 1.792z" fill="#fff"/></g></symbol><symbol id="icon-ruble" viewBox="0 0 23 31"><path d="M13.427 19.327C18.723 19.327 23 15 23 9.663 23 4.335 18.706 0 13.427 0H3.791c-.497 0-.9.407-.9.908V13.62H.9c-.497 0-.9.407-.9.908v3.891c0 .502.403.909.9.909H2.89V21.4H.9c-.497 0-.9.407-.9.909v3.89c0 .502.403.909.9.909H2.89v2.983c0 .501.403.908.9.908h3.854c.497 0 .9-.407.9-.908v-2.983h5.846c.497 0 .9-.407.9-.908v-3.892a.904.904 0 0 0-.9-.908H8.545v-2.074h4.882zM8.545 5.707h4.882c2.161 0 3.919 1.775 3.919 3.956s-1.758 3.956-3.919 3.956H8.545V5.708z" fill="#008FFF"/></symbol><symbol id="icon-sound-muted" viewBox="0 0 24 24"><path fill-rule="evenodd" clip-rule="evenodd" d="M14 3c0-1.922-2.447-2.738-3.6-1.2L6.5 7H4a3 3 0 0 0-3 3v4a3 3 0 0 0 3 3h2.494l3.894 5.305C11.53 23.863 14 23.054 14 21.12V3zM8.1 8.2L12 3v18.121l-3.894-5.304A2 2 0 0 0 6.494 15H4a1 1 0 0 1-1-1v-4a1 1 0 0 1 1-1h2.5a2 2 0 0 0 1.6-.8z"/><path d="M21.293 8.57a1 1 0 1 1 1.414 1.415l-1.947 1.947 1.947 1.947a1 1 0 0 1-1.414 1.414l-1.947-1.947-1.947 1.947a1 1 0 0 1-1.414-1.414l1.947-1.947-1.947-1.947A1 1 0 1 1 17.4 8.571l1.947 1.947 1.947-1.947z"/></symbol><symbol id="icon-sound" viewBox="0 0 24 24"><path clip-rule="evenodd" d="M10.4 1.8C11.553.262 14 1.078 14 3v18.121c0 1.933-2.469 2.742-3.612 1.184L6.494 17H4a3 3 0 0 1-3-3v-4a3 3 0 0 1 3-3h2.5l3.9-5.2zM12 3L8.1 8.2a2 2 0 0 1-1.6.8H4a1 1 0 0 0-1 1v4a1 1 0 0 0 1 1h2.494a2 2 0 0 1 1.612.816L12 21.121V3z"/><path d="M16.214 4.174A1.003 1.003 0 0 1 17.196 3c.467 0 .869.328.95.788C18.424 5.353 19 8.965 19 12s-.576 6.646-.854 8.212a.959.959 0 0 1-.95.788 1.003 1.003 0 0 1-.982-1.174C16.507 18.107 17 14.807 17 12c0-2.807-.493-6.107-.786-7.826zM21.41 5c-.675 0-1.17.694-1.013 1.351C20.676 7.524 21 9.438 21 12s-.324 4.476-.603 5.649c-.157.657.338 1.351 1.013 1.351.362 0 .687-.206.8-.55.293-.893.79-2.927.79-6.45s-.497-5.557-.79-6.45c-.113-.344-.438-.55-.8-.55z"/></symbol><symbol id="icon-telegram" viewBox="0 -31 512 512"><path d="M123.195 260.738l63.68 159.188 82.902-82.903L411.918 450 512 0 0 213.266zm242.5-131.629L208.98 272.051l-19.52 73.566-36.058-90.164zm0 0" class="active-path"/></symbol><symbol id="icon-vk" viewBox="0 0 304.36 304.36"><path d="M261.945 175.576c10.096 9.857 20.752 19.131 29.807 29.982 4 4.822 7.787 9.798 10.684 15.394 4.105 7.955.387 16.709-6.746 17.184l-44.34-.02c-11.436.949-20.559-3.655-28.23-11.474-6.139-6.253-11.824-12.908-17.727-19.372-2.42-2.642-4.953-5.128-7.979-7.093-6.053-3.929-11.307-2.726-14.766 3.587-3.523 6.421-4.322 13.531-4.668 20.687-.475 10.441-3.631 13.186-14.119 13.664-22.414 1.057-43.686-2.334-63.447-13.641-17.422-9.968-30.932-24.04-42.691-39.971-22.895-31.021-40.428-65.108-56.186-100.15C-2.01 76.458.584 72.22 9.295 72.07c14.465-.281 28.928-.261 43.41-.02 5.879.086 9.771 3.458 12.041 9.012 7.826 19.243 17.402 37.551 29.422 54.521 3.201 4.518 6.465 9.036 11.113 12.216 5.142 3.521 9.057 2.354 11.476-3.374 1.535-3.632 2.207-7.544 2.553-11.434 1.146-13.383 1.297-26.743-.713-40.079-1.234-8.323-5.922-13.711-14.227-15.286-4.238-.803-3.607-2.38-1.555-4.799 3.564-4.172 6.916-6.769 13.598-6.769h50.111c7.889 1.557 9.641 5.101 10.721 13.039l.043 55.663c-.086 3.073 1.535 12.192 7.07 14.226 4.43 1.448 7.35-2.096 10.008-4.905 11.998-12.734 20.561-27.783 28.211-43.366 3.395-6.852 6.314-13.968 9.143-21.078 2.096-5.276 5.385-7.872 11.328-7.757l48.229.043c1.43 0 2.877.021 4.262.258 8.127 1.385 10.354 4.881 7.844 12.817-3.955 12.451-11.65 22.827-19.174 33.251-8.043 11.129-16.645 21.877-24.621 33.072-7.328 10.223-6.746 15.376 2.357 24.255zm0 0" fill="#4A76A8" fill-rule="evenodd" clip-rule="evenodd"/></symbol><symbol id="icon-whatsapp" viewBox="0 0 308 308"><path d="M227.904 176.981c-.6-.288-23.054-11.345-27.044-12.781-1.629-.585-3.374-1.156-5.23-1.156-3.032 0-5.579 1.511-7.563 4.479-2.243 3.334-9.033 11.271-11.131 13.642-.274.313-.648.687-.872.687-.201 0-3.676-1.431-4.728-1.888-24.087-10.463-42.37-35.624-44.877-39.867-.358-.61-.373-.887-.376-.887.088-.323.898-1.135 1.316-1.554 1.223-1.21 2.548-2.805 3.83-4.348a140.77 140.77 0 0 1 1.812-2.153c1.86-2.164 2.688-3.844 3.648-5.79l.503-1.011c2.344-4.657.342-8.587-.305-9.856-.531-1.062-10.012-23.944-11.02-26.348-2.424-5.801-5.627-8.502-10.078-8.502-.413 0 0 0-1.732.073-2.109.089-13.594 1.601-18.672 4.802C90 87.918 80.89 98.74 80.89 117.772c0 17.129 10.87 33.302 15.537 39.453.116.155.329.47.638.922 17.873 26.102 40.154 45.446 62.741 54.469 21.745 8.686 32.042 9.69 37.896 9.69h.001c2.46 0 4.429-.193 6.166-.364l1.102-.105c7.512-.666 24.02-9.22 27.775-19.655 2.958-8.219 3.738-17.199 1.77-20.458-1.348-2.216-3.671-3.331-6.612-4.743z"/><path d="M156.734 0C73.318 0 5.454 67.354 5.454 150.143c0 26.777 7.166 52.988 20.741 75.928L.212 302.716a3.998 3.998 0 0 0 4.999 5.096l79.92-25.396c21.87 11.685 46.588 17.853 71.604 17.853C240.143 300.27 308 232.923 308 150.143 308 67.354 240.143 0 156.734 0zm0 268.994c-23.539 0-46.338-6.797-65.936-19.657a3.996 3.996 0 0 0-3.406-.467l-40.035 12.726 12.924-38.129a4.002 4.002 0 0 0-.561-3.647c-14.924-20.392-22.813-44.485-22.813-69.677 0-65.543 53.754-118.867 119.826-118.867 66.064 0 119.812 53.324 119.812 118.867.001 65.535-53.746 118.851-119.811 118.851z"/></symbol><symbol id="icon-youtube" viewBox="0 0 512 512"><path fill="#F00" d="M490.24 113.92c-13.888-24.704-28.96-29.248-59.648-30.976C399.936 80.864 322.848 80 256.064 80c-66.912 0-144.032.864-174.656 2.912-30.624 1.76-45.728 6.272-59.744 31.008C7.36 138.592 0 181.088 0 255.904v.256c0 74.496 7.36 117.312 21.664 141.728 14.016 24.704 29.088 29.184 59.712 31.264C112.032 430.944 189.152 432 256.064 432c66.784 0 143.872-1.056 174.56-2.816 30.688-2.08 45.76-6.56 59.648-31.264C504.704 373.504 512 330.688 512 256.192v-.16-.096c0-74.848-7.296-117.344-21.76-142.016zM192 352V160l160 96-160 96z"/></symbol></svg>