<svg width="23" height="31" viewBox="0 0 23 31" fill="none" xmlns="http://www.w3.org/2000/svg">
<path d="M13.4273 19.3266C18.723 19.3266 23 15 23 9.66328C23 4.33491 18.7057 0 13.4273 0H3.79068C3.29381 0 2.89099 0.406633 2.89099 0.908203V13.619H0.899686C0.40282 13.619 0 14.0256 0 14.5272V18.4184C0 18.9199 0.40282 19.3266 0.899686 19.3266H2.89099V21.4013H0.899686C0.40282 21.4013 0 21.808 0 22.3095V26.2007C0 26.7023 0.40282 27.1089 0.899686 27.1089H2.89099V30.0918C2.89099 30.5934 3.29381 31 3.79068 31H7.64535C8.14222 31 8.54504 30.5934 8.54504 30.0918V27.1088H14.391C14.8878 27.1088 15.2906 26.7022 15.2906 26.2006V22.3095C15.2906 21.8079 14.8878 21.4013 14.391 21.4013H8.54498V19.3266H13.4273ZM8.54498 5.70757H13.4273C15.588 5.70757 17.3459 7.48214 17.3459 9.66328C17.3459 11.8444 15.588 13.619 13.4273 13.619H8.54498V5.70757Z" fill="#008FFF"/>
</svg>
