<svg width="15" height="16" viewBox="0 0 15 16" fill="none" xmlns="http://www.w3.org/2000/svg">
<g clip-path="url(#clip0_311_1226)">
<g clip-path="url(#clip1_311_1226)">
<path d="M11.4038 10.4231C10.9138 9.9393 10.302 9.9393 9.81506 10.4231C9.44362 10.7914 9.07217 11.1598 8.70697 11.5343C8.60709 11.6373 8.52281 11.6592 8.40108 11.5905C8.16074 11.4594 7.90479 11.3533 7.67381 11.2097C6.59694 10.5324 5.69486 9.6615 4.8958 8.6814C4.49938 8.19446 4.14667 7.6732 3.90008 7.08638C3.85014 6.96777 3.85951 6.88974 3.95627 6.79297C4.32771 6.43402 4.68979 6.0657 5.05499 5.69738C5.56377 5.18547 5.56377 4.58617 5.05186 4.07115C4.76158 3.77774 4.47129 3.49058 4.18101 3.19717C3.88135 2.89752 3.58483 2.59475 3.28205 2.29822C2.792 1.82065 2.18021 1.82065 1.69328 2.30134C1.31872 2.66966 0.959763 3.04734 0.578958 3.40942C0.226244 3.74341 0.0483268 4.1523 0.0108705 4.62987C-0.0484353 5.40709 0.141968 6.14061 0.410404 6.8554C0.959763 8.33492 1.79629 9.64902 2.81073 10.8539C4.18101 12.4832 5.8166 13.7723 7.72999 14.7025C8.59149 15.1208 9.48419 15.4423 10.4549 15.4953C11.1229 15.5328 11.7035 15.3642 12.1686 14.843C12.4869 14.4871 12.8459 14.1625 13.183 13.8223C13.6824 13.3166 13.6855 12.7048 13.1892 12.2054C12.5962 11.6092 12 11.0162 11.4038 10.4231Z" fill="white"/>
<path d="M10.8074 7.93467L11.9592 7.73802C11.7781 6.67988 11.2787 5.72162 10.5202 4.96001C9.71803 4.15782 8.70359 3.65216 7.58614 3.49609L7.42383 4.65412C8.28844 4.77585 9.07503 5.16602 9.69618 5.78717C10.283 6.37399 10.6669 7.11687 10.8074 7.93467Z" fill="white"/>
<path d="M12.6088 2.92842C11.2791 1.59872 9.59667 0.759073 7.73946 0.5L7.57715 1.65802C9.18153 1.88276 10.6361 2.61004 11.7847 3.75558C12.8741 4.84493 13.5889 6.22145 13.848 7.73531L14.9997 7.53866C14.697 5.78446 13.8698 4.19257 12.6088 2.92842Z" fill="white"/>
</g>
</g>
<defs>
<clipPath id="clip0_311_1226">
<rect width="15" height="15" fill="white" transform="translate(0 0.5)"/>
</clipPath>
<clipPath id="clip1_311_1226">
<rect width="15" height="15" fill="white" transform="translate(0 0.5)"/>
</clipPath>
</defs>
</svg>
