<svg width="16" height="12" viewBox="0 0 16 12" fill="none" xmlns="http://www.w3.org/2000/svg">
<g clip-path="url(#clip0_311_1239)">
<path d="M8.00019 8.28613L6.02076 6.55356L0.361328 11.405C0.567042 11.5958 0.844757 11.7147 1.15104 11.7147H14.8493C15.1545 11.7147 15.431 11.5958 15.6356 11.405L9.97961 6.55356L8.00019 8.28613Z" fill="white"/>
<path d="M15.6387 0.595847C15.433 0.403847 15.1564 0.286133 14.849 0.286133H1.15071C0.845567 0.286133 0.568996 0.40499 0.363281 0.598133L7.99985 7.14328L15.6387 0.595847Z" fill="white"/>
<path d="M0 1.29004V10.7849L5.52343 6.09118L0 1.29004Z" fill="white"/>
<path d="M10.4766 6.0907L16 10.7844V1.28613L10.4766 6.0907Z" fill="white"/>
</g>
<defs>
<clipPath id="clip0_311_1239">
<rect width="16" height="12" fill="white"/>
</clipPath>
</defs>
</svg>
