<svg width="171" height="171" viewBox="0 0 171 171" fill="none" xmlns="http://www.w3.org/2000/svg">
<path opacity="0.3" d="M171 85.5C171 132.72 132.72 171 85.5 171C38.2797 171 0 132.72 0 85.5C0 38.2797 38.2797 0 85.5 0C132.72 0 171 38.2797 171 85.5ZM26.6603 85.5C26.6603 117.996 53.0038 144.34 85.5 144.34C117.996 144.34 144.34 117.996 144.34 85.5C144.34 53.0038 117.996 26.6603 85.5 26.6603C53.0038 26.6603 26.6603 53.0038 26.6603 85.5Z" fill="#008FFF"/>
<path d="M157.67 85.5C165.032 85.5 171.106 79.4964 169.963 72.2237C168.916 65.5646 167.083 59.0371 164.492 52.7806C160.195 42.4072 153.897 32.9818 145.958 25.0424C138.018 17.103 128.593 10.8051 118.219 6.5083C111.963 3.91675 105.435 2.08377 98.7763 1.03705C91.5036 -0.106122 85.5 5.96812 85.5 13.3302C85.5 20.6922 91.5426 26.5102 98.7165 28.1639C101.886 28.8946 104.997 29.8885 108.017 31.1392C115.156 34.0962 121.642 38.4303 127.106 43.8941C132.57 49.3578 136.904 55.8443 139.861 62.983C141.111 66.0025 142.105 69.1137 142.836 72.2835C144.49 79.4574 150.308 85.5 157.67 85.5Z" fill="#008FFF"/>
</svg>
